<!--?xml version="1.0" encoding="utf-8"?-->
<!-- Generator: Adobe Illustrator 18.1.1, SVG Export Plug-In . SVG Version: 6.00 Build 0)  -->

<svg version="1.1" id="_x32_" xmlns="http://www.w3.org/2000/svg" xmlns:xlink="http://www.w3.org/1999/xlink" x="0px" y="0px" viewBox="0 0 512 512" style="width: 256px; height: 256px; opacity: 1;" xml:space="preserve">
<style type="text/css">
	.st0{fill:#4B4B4B;}
</style>
<g>
	<path class="st0" d="M112.833,324.399h122.969V142.565c0-4.668-3.073-8.796-7.556-10.128c-4.483-1.356-9.312,0.416-11.876,4.328
		L103.983,308.001c-2.134,3.258-2.31,7.433-0.462,10.844C105.37,322.273,108.951,324.399,112.833,324.399z" style="fill: rgb(255, 255, 255);"></path>
	<path class="st0" d="M420.756,319.262c1.91-3.182,2.018-7.132,0.27-10.414L276.098,36.047c-2.28-4.298-7.194-6.485-11.908-5.314
		c-4.713,1.186-8.026,5.406-8.026,10.266v283.4h155.518C415.395,324.399,418.838,322.451,420.756,319.262z" style="fill: rgb(255, 255, 255);"></path>
	<path class="st0" d="M100.471,418.902c8.406-2.627,17.58-4.044,27.384-4.044c12.785,0,24.28,2.164,34.558,6.446
		c6.855,2.842,12.127,6.046,15.978,8.396l2.515,1.51c1.99,1.17,3.192,1.779,4.224,2.156c0.797,0.285,2.461,0.886,6.916,0.893
		c4.679-0.015,6.324-0.685,7.41-1.124c1.417-0.577,3.62-1.91,6.408-3.588l3.076-1.849c3.971-2.334,9.27-5.252,15.932-7.672
		c9.335-3.42,19.775-5.167,30.981-5.167c12.774,0,24.264,2.164,34.55,6.439c6.84,2.842,12.1,6.038,15.939,8.38l2.546,1.524
		c2.014,1.186,3.208,1.795,4.244,2.172c0.774,0.278,2.449,0.878,6.905,0.886c4.67-0.015,6.315-0.685,7.401-1.124
		c1.417-0.577,3.62-1.91,6.408-3.588l3.077-1.849c3.97-2.334,9.27-5.252,15.932-7.672c9.334-3.42,19.778-5.167,30.981-5.167
		c10.028,0,19.24,1.378,27.723,4.02c23.44-14.526,44.529-32.494,62.47-53.282c5.76-6.678,3.435-20.842-11.268-20.842
		c-11.722,0-129.192,0-176.528,0c-12.099,0-19.617,0-19.617,0h-21.241h-19.617c-47.336,0-164.806,0-176.528,0
		c-14.703,0-17.022,14.164-11.268,20.842C55.912,386.392,77.011,404.376,100.471,418.902z" style="fill: rgb(255, 255, 255);"></path>
	<path class="st0" d="M488.956,442.262c-4.713,1.71-8.618,3.828-11.937,5.776c-5.007,2.972-8.665,5.391-12.693,7.032
		c-4.036,1.633-8.641,2.819-16.328,2.85c-6.824-0.015-11.245-0.986-14.965-2.318c-2.788-1.016-5.261-2.311-8.033-3.943
		c-4.137-2.403-8.988-5.73-15.681-8.511c-6.694-2.781-15.019-4.66-25.34-4.628c-9.173-0.016-16.759,1.44-23.044,3.743
		c-4.706,1.71-8.611,3.828-11.93,5.776c-5.006,2.972-8.672,5.391-12.693,7.032c-4.036,1.633-8.648,2.819-16.328,2.85
		c-6.824-0.015-11.237-0.986-14.957-2.318c-2.788-1.016-5.252-2.311-8.025-3.943c-4.136-2.403-8.98-5.73-15.673-8.511
		c-6.694-2.781-15.012-4.66-25.332-4.628c-9.172-0.016-16.759,1.44-23.044,3.743c-4.706,1.71-8.61,3.828-11.93,5.776
		c-5.007,2.972-8.672,5.391-12.693,7.032c-4.036,1.633-8.649,2.819-16.336,2.85c-6.824-0.015-11.237-0.986-14.95-2.318
		c-2.796-1.016-5.26-2.311-8.04-3.943c-4.129-2.403-8.973-5.73-15.673-8.511c-6.686-2.781-15.012-4.66-25.332-4.628
		c-9.173-0.016-16.76,1.44-23.044,3.743c-4.706,1.71-8.611,3.828-11.93,5.776c-5.006,2.972-8.672,5.391-12.693,7.032
		c-4.036,1.633-8.65,2.819-16.328,2.85c-6.824-0.015-11.237-0.986-14.957-2.318c-2.796-1.016-5.26-2.311-8.033-3.943
		c-4.137-2.403-8.981-5.73-15.681-8.511c-6.694-2.781-15.019-4.66-25.332-4.628v23.66c6.824,0.015,11.237,0.986,14.956,2.318
		c2.789,1.017,5.261,2.311,8.034,3.944c4.136,2.395,8.981,5.73,15.681,8.51c6.685,2.78,15.011,4.66,25.332,4.629
		c9.181,0.016,16.759-1.44,23.044-3.743c4.706-1.718,8.611-3.827,11.93-5.776c5.006-2.974,8.672-5.392,12.692-7.032
		c4.036-1.632,8.649-2.819,16.329-2.85c6.824,0.015,11.237,0.986,14.956,2.318c2.789,1.017,5.26,2.311,8.033,3.944
		c4.136,2.395,8.981,5.73,15.674,8.51c6.693,2.78,15.019,4.66,25.332,4.629c9.181,0.016,16.767-1.44,23.052-3.743
		c4.705-1.71,8.611-3.827,11.93-5.776c5.006-2.974,8.672-5.392,12.692-7.032c4.037-1.632,8.65-2.819,16.328-2.85
		c6.824,0.015,11.238,0.986,14.95,2.318c2.788,1.017,5.26,2.311,8.032,3.944c4.136,2.395,8.981,5.73,15.674,8.51
		c6.686,2.78,15.011,4.66,25.331,4.629c9.173,0.016,16.76-1.44,23.044-3.743c4.706-1.718,8.611-3.827,11.93-5.776
		c5.006-2.974,8.664-5.392,12.693-7.032c4.036-1.632,8.65-2.819,16.328-2.85c6.824,0.015,11.245,0.986,14.964,2.318
		c2.789,1.017,5.26,2.311,8.034,3.944c4.136,2.403,8.981,5.738,15.681,8.51c6.693,2.78,15.019,4.66,25.339,4.629
		c9.18,0.016,16.76-1.44,23.044-3.743c4.706-1.718,8.619-3.827,11.93-5.776c5.014-2.974,8.673-5.392,12.701-7.032
		c4.028-1.632,8.642-2.819,16.328-2.85v-23.66C502.819,438.503,495.241,439.959,488.956,442.262z" style="fill: rgb(255, 255, 255);"></path>
</g>
</svg>
